name Walk1.mot
datacolumns 19
datarows 30
range 1.88000000 2.02500000
endheader

                time	   L_ground_force_vx	   L_ground_force_vy	   L_ground_force_vz	   L_ground_force_px	   L_ground_force_py	   L_ground_force_pz	   R_ground_force_vx	   R_ground_force_vy	   R_ground_force_vz	   R_ground_force_px	   R_ground_force_py	   R_ground_force_pz	   L_ground_torque_x	   L_ground_torque_y	   L_ground_torque_z	   R_ground_torque_x	   R_ground_torque_y	   R_ground_torque_z	
          1.88000000	        -12.70828105	        567.62339978	         25.89020981	          0.43163155	          0.00000000	          0.25958876	          0.00000000	          0.00000000	         -0.00000000	         -0.00000000	          0.00000000	          0.00000000	          0.00000000	         -2.19786467	          0.00000000	          0.00000000	          0.00000000	          0.00000000	
          1.88500000	        -10.28913094	        567.73448665	         26.49275290	          0.43305344	          0.00000000	          0.25925018	         -0.00000000	          0.00000000	         -0.00000000	         -0.00000000	          0.00000000	          0.00000000	          0.00000000	         -2.19469178	          0.00000000	          0.00000000	          0.00000000	          0.00000000	
          1.89000000	         -7.68322535	        569.70112828	         26.94937364	          0.43469944	          0.00000000	          0.25879364	         -0.00000000	         -0.00000000	         -0.00000000	         -0.00000000	          0.00000000	          0.00000000	          0.00000000	         -2.17661663	          0.00000000	          0.00000000	         -0.00000000	          0.00000000	
          1.89500000	         -5.13563976	        573.28558038	         27.18496022	          0.43631445	          0.00000000	          0.25833169	          0.00000000	         -0.00000000	          0.00000000	          0.00000000	          0.00000000	         -0.00000000	          0.00000000	         -2.19446216	          0.00000000	          0.00000000	         -0.00000000	          0.00000000	
          1.90000000	         -2.91364181	        578.42445204	         26.98129961	          0.43766886	          0.00000000	          0.25794280	          0.00000000	         -0.00000000	          0.00000000	          0.00000000	          0.00000000	         -0.00000000	          0.00000000	         -2.22409930	          0.00000000	          0.00000000	         -0.00000000	          0.00000000	
          1.90500000	         -0.95812271	        584.47523232	         26.30048996	          0.43899825	          0.00000000	          0.25759171	          0.00000000	          0.00000000	          0.00000000	         -0.00000000	          0.00000000	          0.00000000	          0.00000000	         -2.18085069	          0.00000000	          0.00000000	          0.00000000	          0.00000000	
          1.91000000	          0.97538762	        591.18970779	         25.30678375	          0.44051460	          0.00000000	          0.25718970	         -0.00000000	          0.00000000	         -0.00000000	         -0.00000000	          0.00000000	          0.00000000	          0.00000000	         -2.15260195	          0.00000000	          0.00000000	          0.00000000	          0.00000000	
          1.91500000	          3.09607143	        598.79392830	         24.01794964	          0.44187844	          0.00000000	          0.25682011	         -0.00000000	          0.00000000	         -0.00000000	         -0.00000000	          0.00000000	          0.00000000	          0.00000000	         -2.14183369	          0.00000000	          0.00000000	         -0.00000000	          0.00000000	
          1.92000000	          5.38990044	        607.21995610	         22.59659695	          0.44278136	          0.00000000	          0.25651103	         -0.00000000	         -0.00000000	         -0.00000000	          0.00000000	          0.00000000	         -0.00000000	          0.00000000	         -2.12484299	          0.00000000	          0.00000000	         -0.00000000	          0.00000000	
          1.92500000	          7.72364771	        616.12536042	         21.20725881	          0.44374654	          0.00000000	          0.25604149	          0.00000000	         -0.00000000	          0.00000000	          0.00000000	          0.00000000	         -0.00000000	          0.00000000	         -2.14092873	          0.00000000	          0.00000000	         -0.00000000	          0.00000000	
          1.93000000	         10.04763349	        625.30821347	         19.98198324	          0.44496398	          0.00000000	          0.25540243	          0.00000000	          0.00000000	          0.00000000	          0.00000000	          0.00000000	         -0.00000000	          0.00000000	         -2.17046664	          0.00000000	          0.00000000	          0.00000000	          0.00000000	
          1.93500000	         12.16542381	        634.60286037	         19.05177832	          0.44626288	          0.00000000	          0.25478019	          0.00000000	          0.00000000	          0.00000000	         -0.00000000	          0.00000000	          0.00000000	          0.00000000	         -2.17550003	          0.00000000	          0.00000000	          0.00000000	          0.00000000	
          1.94000000	         13.85189364	        643.34810484	         18.56331141	          0.44779887	          0.00000000	          0.25418852	         -0.00000000	          0.00000000	         -0.00000000	         -0.00000000	          0.00000000	          0.00000000	          0.00000000	         -2.15053746	          0.00000000	          0.00000000	          0.00000000	          0.00000000	
          1.94500000	         14.99856489	        651.41184130	         18.60570272	          0.44969813	          0.00000000	          0.25363994	         -0.00000000	         -0.00000000	         -0.00000000	         -0.00000000	          0.00000000	          0.00000000	          0.00000000	         -2.08473335	          0.00000000	          0.00000000	         -0.00000000	          0.00000000	
          1.95000000	         15.61574974	        658.75643321	         19.12200550	          0.45185363	          0.00000000	          0.25311775	         -0.00000000	         -0.00000000	          0.00000000	          0.00000000	          0.00000000	         -0.00000000	          0.00000000	         -1.97271334	          0.00000000	          0.00000000	         -0.00000000	          0.00000000	
          1.95500000	         15.93464764	        665.04415534	         19.95661034	          0.45409701	          0.00000000	          0.25234716	          0.00000000	         -0.00000000	          0.00000000	          0.00000000	          0.00000000	         -0.00000000	          0.00000000	         -1.83243454	          0.00000000	          0.00000000	         -0.00000000	          0.00000000	
          1.96000000	         16.11657138	        670.65211187	         20.88602692	          0.45622212	          0.00000000	          0.25151863	          0.00000000	          0.00000000	          0.00000000	         -0.00000000	          0.00000000	          0.00000000	          0.00000000	         -1.67410170	          0.00000000	          0.00000000	          0.00000000	          0.00000000	
          1.96500000	         16.24040495	        675.83514751	         21.70461253	          0.45842845	          0.00000000	          0.25095402	         -0.00000000	          0.00000000	         -0.00000000	         -0.00000000	          0.00000000	          0.00000000	          0.00000000	         -1.55952181	          0.00000000	          0.00000000	          0.00000000	          0.00000000	
          1.97000000	         16.47014002	        680.77113994	         22.51864558	          0.46096257	          0.00000000	          0.25037986	         -0.00000000	          0.00000000	         -0.00000000	         -0.00000000	          0.00000000	          0.00000000	          0.00000000	         -1.47928716	          0.00000000	          0.00000000	         -0.00000000	          0.00000000	
          1.97500000	         16.83074011	        685.49106335	         23.40602402	          0.46360195	          0.00000000	          0.24974908	         -0.00000000	         -0.00000000	         -0.00000000	          0.00000000	          0.00000000	         -0.00000000	          0.00000000	         -1.39941614	          0.00000000	          0.00000000	         -0.00000000	          0.00000000	
          1.98000000	         17.30288273	        689.41345962	         24.43144067	          0.46624258	          0.00000000	          0.24911639	          0.00000000	         -0.00000000	          0.00000000	          0.00000000	          0.00000000	         -0.00000000	          0.00000000	         -1.29507496	          0.00000000	          0.00000000	         -0.00000000	          0.00000000	
          1.98500000	         17.67883509	        691.99091120	         25.73427005	          0.46892032	          0.00000000	          0.24846554	          0.00000000	         -0.00000000	          0.00000000	          0.00000000	          0.00000000	         -0.00000000	          0.00000000	         -1.16301853	          0.00000000	          0.00000000	          0.00000000	          0.00000000	
          1.99000000	         17.74103518	        693.80349868	         27.29959121	          0.47188799	          0.00000000	          0.24809401	          0.00000000	          0.00000000	          0.00000000	         -0.00000000	          0.00000000	          0.00000000	          0.00000000	         -1.01743896	          0.00000000	          0.00000000	          0.00000000	          0.00000000	
          1.99500000	         17.56912877	        695.04409492	         28.86321695	          0.47504719	          0.00000000	          0.24794064	         -0.00000000	          0.00000000	         -0.00000000	         -0.00000000	          0.00000000	          0.00000000	          0.00000000	         -0.89911941	          0.00000000	          0.00000000	          0.00000000	          0.00000000	
          2.00000000	         17.32998206	        695.58536308	         30.20856140	          0.47835296	          0.00000000	          0.24769321	         -0.00000000	         -0.00000000	         -0.00000000	         -0.00000000	          0.00000000	          0.00000000	          0.00000000	         -0.85592849	          0.00000000	          0.00000000	         -0.00000000	          0.00000000	
          2.00500000	         17.08035380	        696.08075079	         31.27509252	          0.48158793	          0.00000000	          0.24744309	         -0.00000000	         -0.00000000	         -0.00000000	          0.00000000	          0.00000000	         -0.00000000	          0.00000000	         -0.86478863	          0.00000000	          0.00000000	         -0.00000000	          0.00000000	
          2.01000000	         17.04805079	        696.87606245	         32.29576252	          0.48468284	          0.00000000	          0.24707880	          0.00000000	         -0.00000000	          0.00000000	          0.00000000	          0.00000000	         -0.00000000	          0.00000000	         -0.86160527	          0.00000000	          0.00000000	         -0.00000000	          0.00000000	
          2.01500000	         17.33414775	        697.86531068	         33.23539363	          0.48793740	          0.00000000	          0.24674962	          0.00000000	          0.00000000	          0.00000000	          0.00000000	          0.00000000	         -0.00000000	          0.00000000	         -0.79479729	          0.00000000	          0.00000000	          0.00000000	          0.00000000	
          2.02000000	         17.77701862	        699.25778671	         33.95919185	          0.49116838	          0.00000000	          0.24666164	          0.00000000	          0.00000000	         -0.00000000	         -0.00000000	          0.00000000	          0.00000000	          0.00000000	         -0.72445558	          0.00000000	          0.00000000	          0.00000000	          0.00000000	
          2.02500000	         18.44951928	        701.09932101	         34.58196954	          0.49408486	          0.00000000	          0.24667343	         -0.00000000	          0.00000000	         -0.00000000	         -0.00000000	          0.00000000	          0.00000000	          0.00000000	         -0.73735400	          0.00000000	          0.00000000	          0.00000000	          0.00000000	
